<?xml version="1.0" encoding="UTF-8" standalone="no"?><!DOCTYPE svg PUBLIC "-//W3C//DTD SVG 1.1//EN" "http://www.w3.org/Graphics/SVG/1.1/DTD/svg11.dtd"><svg width="100%" height="100%" viewBox="0 0 905 684" version="1.1" xmlns="http://www.w3.org/2000/svg" xmlns:xlink="http://www.w3.org/1999/xlink" xml:space="preserve" xmlns:serif="http://www.serif.com/" style="fill-rule:evenodd;clip-rule:evenodd;stroke-linecap:round;stroke-linejoin:round;stroke-miterlimit:10;"><g><path d="M134.391,389.486c-13.792,-9.445 -23.159,-25.983 -21.684,-42.629c1.629,-18.4 15.617,-35.591 11.321,-53.554c-3.512,-14.679 -17.792,-23.617 -28.471,-34.283c-12.904,-12.892 -21.521,-32.892 -13.841,-49.429c5.833,-12.559 19.833,-20.567 23.354,-33.959c4.608,-17.525 -10.613,-33.529 -15.584,-50.95c-5.766,-20.229 4.146,-43.662 22.396,-54.121c18.25,-10.458 43.071,-7.395 58.638,6.75c15.571,14.146 21.054,38.125 13.754,57.85c-5.267,14.225 -16.583,27.109 -15.413,42.234c0.934,12.041 9.6,21.804 16.809,31.496c7.208,9.691 13.537,22.175 9.137,33.42c-2.704,6.913 -9.075,12.009 -11.275,19.096c-4.225,13.629 8.154,26.146 18.479,35.996c19.096,18.217 43.971,55.7 23.08,81.471c-20.442,25.217 -65.063,28.175 -90.7,10.612" style="fill:#a0a6ff;fill-rule:nonzero;"/><path d="M113.339,518.016c-11.016,-15.133 -8.187,-40.258 -24.791,-48.891c-7.859,-4.092 -17.284,-2.592 -26.142,-2.425c-17.137,0.316 -34.804,-5.238 -46.979,-17.309c-12.167,-12.07 -17.871,-31.066 -12.042,-47.187c7.459,-20.621 30.654,-31.379 52.45,-33.758c17.304,-1.892 37.475,1.583 46.671,16.362c2.408,3.863 3.875,8.246 6.258,12.117c18.68,30.321 61.325,32.508 69.105,74.308c6.241,33.529 -35.146,87.154 -64.53,46.783" style="fill:#a0a6ff;fill-rule:nonzero;"/><path d="M102.086,435.831c47.8,19.733 83.121,64.191 108.588,100.937c15.775,22.763 27.625,48.892 29.958,76.492c-10.662,-92.125 -37.946,-184.721 -82.146,-266.25" style="fill:none;fill-rule:nonzero;stroke:#8a8af0;stroke-width:2.28px;"/><path d="M124.118,682.315l742.096,-0c20.279,-0 36.867,-16.588 36.867,-36.867c-0,-20.275 -16.588,-36.867 -36.867,-36.867l-742.096,0c-20.275,0 -36.867,16.592 -36.867,36.867c0,20.279 16.592,36.867 36.867,36.867" style="fill:#ffa637;fill-rule:nonzero;"/><path d="M838.284,493.714c0,-73.914 -60.008,-133.923 -133.92,-133.923c-73.913,0 -133.921,60.009 -133.921,133.923c-0,73.914 60.008,133.923 133.921,133.923c73.912,0 133.92,-60.009 133.92,-133.923Z" style="fill:none;stroke:#a0a6ff;stroke-width:3.43px;stroke-miterlimit:4;stroke-dasharray:0,8.08;"/><path d="M838.284,493.716c0,73.963 -59.958,133.921 -133.92,133.921c-73.967,0 -133.921,-59.958 -133.921,-133.921c-0,-73.962 59.954,-133.92 133.921,-133.92c73.962,-0 133.92,59.958 133.92,133.92" style="fill:#a0a6ff;fill-rule:nonzero;"/><path d="M589.332,427.977c0,0 156.809,38.175 231.425,103.129" style="fill:none;fill-rule:nonzero;stroke:#8a8af0;stroke-width:2.28px;"/><path d="M668.617,366.136c-0,0 -6.342,88.8 -93.554,139.542" style="fill:none;fill-rule:nonzero;stroke:#8a8af0;stroke-width:2.28px;"/><path d="M592.504,567.518c-0,0 135.221,-32.712 130.025,-204.554" style="fill:none;fill-rule:nonzero;stroke:#8a8af0;stroke-width:2.28px;"/><path d="M662.274,616.673c-0,0 136.245,-48.429 121.395,-232.045" style="fill:none;fill-rule:nonzero;stroke:#8a8af0;stroke-width:2.28px;"/><path d="M755.828,618.258c0,0 66.6,-44.4 76.113,-171.254" style="fill:none;fill-rule:nonzero;stroke:#8a8af0;stroke-width:2.28px;"/><path d="M251.881,248.302l96.579,36.509l-10.641,-1.096l109.5,-30.975c11.237,-3.179 22.925,3.354 26.104,14.591c3.179,11.238 -3.354,22.925 -14.596,26.109c-0.571,0.162 -1.188,0.304 -1.763,0.416l-111.754,21.467l-1.821,0.354c-3.137,0.6 -6.241,0.009 -8.816,-1.45l-89.85,-50.866c-4.009,-2.271 -5.417,-7.359 -3.15,-11.367c2.054,-3.629 6.425,-5.125 10.208,-3.692" style="fill:#ff6d5c;fill-rule:nonzero;"/><path d="M290.004,287.745l-42.771,-23.487c-0,-0 -31.463,-10.975 -30.871,-13.763c0.592,-2.783 12.579,0.642 12.579,0.642c0,-0 -15.342,-5.454 -15.267,-7.638c0.113,-3.45 17.459,3.029 17.459,3.029c-0,0 -18.7,-7.533 -16.854,-10.829c1.845,-3.296 19.508,6.259 19.508,6.259c-0,-0 -16.058,-10.017 -13.992,-12.555c2.067,-2.541 22.288,11.175 22.288,11.175c-0,0 -3.496,-11.854 -1.129,-12.72c3.825,-1.396 11.725,21.237 12.404,23.208l37.379,12.721l-0.733,23.958Z" style="fill:#ff735e;fill-rule:nonzero;"/><path d="M512.922,220.24c-1.166,0.9 -2.3,1.833 -3.433,2.771c-4.271,3.475 -8.417,7.1 -12.608,10.667c-0.28,0.245 -0.575,0.475 -0.884,0.683c-2.758,1.917 -6.266,2.592 -10.05,2.15c-0.887,-0.092 -1.8,-0.283 -2.712,-0.508c-5.838,-1.438 -12.054,-5.346 -17.059,-11.23l-2.97,-3.508c-4.525,-5.304 -7.467,-11.746 -7.321,-18.558c-0,-0.704 0.046,-1.392 0.129,-2.113c0.1,-0.733 0.196,-1.433 0.362,-2.125c0.275,-1.275 0.663,-2.454 1.146,-3.562c0.304,-0.788 0.675,-1.529 1.092,-2.254c0.292,-0.517 0.6,-1.013 0.921,-1.492c1.854,-2.763 4.246,-5.129 6.862,-7.342c0.075,-0.096 0.146,-0.158 0.246,-0.216l0.754,-0.663c1.988,-1.658 4.059,-3.258 6.034,-4.937c0.82,-0.692 1.62,-1.367 2.391,-2.08c4.992,-4.529 11.088,-9.391 18.546,-8.87c0.738,0.062 1.471,0.154 2.204,0.316c6.6,1.313 12.588,6.163 16.871,11.196l2.975,3.508c0.35,0.4 0.7,0.834 1.033,1.284c0.35,0.429 0.684,0.879 1,1.346c0.334,0.445 0.667,0.929 0.967,1.408c0.625,0.962 1.225,1.954 1.767,2.958c3,5.584 4.616,12 3.112,17.909c-0.658,2.675 -2.15,4.929 -3.987,6.937c-2.204,2.4 -4.934,4.417 -7.388,6.325" style="fill:#ff6d5c;fill-rule:nonzero;"/><path d="M481.896,233.3c-12.983,5.946 -23.075,17.875 -26.792,31.666c-0.545,2.03 -1.05,4.242 -2.637,5.617l-28.913,-32.779c7.817,-0.592 16.492,-2.275 23.113,-6.467c4.867,-3.079 8.829,-7.375 12.725,-11.616c3.75,-4.084 7.5,-8.171 11.25,-12.255c1.121,5.455 3,12.292 6.367,16.725c2.337,3.084 3.35,5.555 4.887,9.109" style="fill:#ff6d5c;fill-rule:nonzero;"/><path d="M480.328,221.911c4.071,3.82 10.466,3.62 14.287,-0.446c3.825,-4.071 3.621,-10.467 -0.446,-14.292c-4.07,-3.821 -10.466,-3.621 -14.287,0.45c-3.825,4.067 -3.625,10.467 0.446,14.288" style="fill:#ff6d5c;fill-rule:nonzero;"/><path d="M725.361,571.986c2.255,6.279 7.159,11.637 13.192,14.408c2.996,1.379 6.413,2.258 8.554,4.804c3.963,4.704 1.004,12.004 -3.654,15.575c-4.662,3.567 -10.675,5.142 -15.142,8.946c-3.029,2.571 -5.17,6.017 -7.575,9.192c-4.35,5.733 -9.683,10.679 -15.712,14.583c-1.075,0.7 -2.35,1.387 -3.617,0.996c-2.65,-0.821 -2.125,-4.784 -0.821,-7.154c5.434,-9.896 14.205,-18.642 14.663,-30.146c0.254,-6.409 -2.204,-12.75 -5.3,-18.504c-0.871,-1.613 -1.813,-3.271 -1.954,-5.071c-0.379,-4.85 4.816,-7.734 9.233,-9.434" style="fill:#ff6d5c;fill-rule:nonzero;"/><path d="M461.61,188.423l7.5,11.125c0,-0 -6.579,3.45 -11.587,-4.642c-0,-0 1.008,-4.071 4.087,-6.483" style="fill:#fff;fill-rule:nonzero;"/><path d="M464.821,235.883c12.82,12.35 16.15,31.496 16.17,48.988c0.025,17.492 -2.454,35.2 1.796,52.35c1.846,7.442 5.025,14.742 10.167,20.512c14.437,16.205 39.037,15.967 58.192,25.792c42.633,21.867 49.245,87.275 92.095,108.667c7.338,3.662 15.292,5.733 22.767,9.066c32.1,14.317 50.217,48.813 65.717,80.68c2.146,4.42 3.454,11.216 -1.05,12.654c-1.725,0.554 -3.634,-0.084 -5.375,-0.754c-29.142,-11.321 -52.05,-34.809 -76.871,-54.309c-55.817,-43.858 -125.183,-70.037 -172.654,-123.05c-8.242,-9.204 -15.729,-19.137 -24.784,-27.525c-10.041,-9.316 -21.904,-16.625 -30.945,-26.937c-9.492,-10.825 -15.442,-24.738 -16.625,-38.879c-1.255,-14.934 2.637,-29.525 6.495,-43.759c3.875,-14.291 5.163,-39.087 17.605,-48.271c9.462,-6.983 29.3,-5.304 37.3,4.775" style="fill:#b7edd5;fill-rule:nonzero;"/><path d="M480.395,318.403c0.212,6.321 0.854,12.604 2.396,18.821c1.841,7.437 5.02,14.742 10.162,20.508c14.438,16.204 39.038,15.967 58.192,25.792c42.633,21.867 49.246,87.279 92.096,108.667c7.337,3.662 15.291,5.733 22.766,9.066c32.1,14.321 50.217,48.817 65.717,80.684c2.146,4.416 3.454,11.212 -1.05,12.654c-1.725,0.55 -3.633,-0.084 -5.371,-0.759c-29.142,-11.316 -52.05,-34.808 -76.871,-54.308c-55.821,-43.858 -125.187,-70.037 -172.658,-123.05c-8.238,-9.204 -15.729,-19.133 -24.783,-27.525c-10.042,-9.312 -21.9,-16.625 -30.942,-26.933c-9.496,-10.829 -15.446,-24.738 -16.629,-38.884c-0.134,-1.583 -0.179,-3.158 -0.2,-4.733l77.175,0Z" style="fill:#ff6d5c;fill-rule:nonzero;"/><path d="M491.615,355.978c0.458,0.579 0.846,1.204 1.337,1.754c14.442,16.204 39.038,15.967 58.196,25.792c42.633,21.867 49.242,87.279 92.096,108.667c7.333,3.662 15.287,5.733 22.762,9.066c7.392,3.3 14.017,7.704 20.063,12.867c-8.879,11.437 -18.1,22.612 -27.233,33.846c-3.446,-2.863 -6.905,-5.696 -10.405,-8.442c-55.82,-43.858 -125.187,-70.033 -172.658,-123.05c-7.075,-7.904 -13.662,-16.292 -21.096,-23.833c12.454,-12.071 24.742,-24.317 36.938,-36.667" style="fill:#5b4565;fill-rule:nonzero;"/><path d="M489.461,366.678c15.591,3.445 31.658,7.095 44.637,16.395c12.979,9.3 22.171,25.825 18.004,41.242c-5.004,18.521 -25.837,27.475 -44.575,31.638c-56.862,12.641 -116.037,4.887 -173.762,-2.917c6.112,12.283 7.837,24.475 6.071,38.079c-1.58,12.129 -7.18,23.308 -12.696,34.225c-7.038,13.917 -14.071,27.833 -21.104,41.75c-6.405,12.667 -14.575,41.942 -10.1,55.408c2.404,7.242 7.716,15.567 3.004,21.563l-56.909,1.2c-0.987,-11.879 18.613,-7.467 26.088,-16.754c5.292,-6.575 7.337,-30.563 7.537,-39c1.113,-46.246 2.23,-92.492 3.342,-138.734c0.354,-14.775 3.15,-33.058 17.175,-37.712l193.288,-46.383Z" style="fill:#5b4565;fill-rule:nonzero;"/><path d="M268.119,628.506c5.291,-6.575 7.337,-30.562 7.537,-39l1.375,-57.037l46.504,-0l-17.5,34.621c-6.404,12.666 -14.575,41.941 -10.1,55.412c2.404,7.238 7.717,15.563 3.004,21.559l-56.908,1.2c-0.987,-11.88 18.617,-7.467 26.088,-16.755" style="fill:#ff6d5c;fill-rule:nonzero;"/><path d="M461.842,39.248l-36.071,96.742l1.05,-10.646l31.467,109.359c3.229,11.225 -3.25,22.941 -14.475,26.17c-11.225,3.23 -22.942,-3.25 -26.167,-14.475c-0.167,-0.57 -0.317,-1.187 -0.429,-1.762l-21.975,-111.654l-0.358,-1.821c-0.617,-3.133 -0.038,-6.238 1.408,-8.825l50.458,-90.079c2.254,-4.017 7.338,-5.45 11.354,-3.2c3.638,2.037 5.155,6.4 3.738,10.191" style="fill:#ff6d5c;fill-rule:nonzero;"/><path d="M422.572,77.548l23.292,-42.879c-0,-0 10.833,-31.508 13.625,-30.929c2.787,0.579 -0.584,12.583 -0.584,12.583c0,0 5.384,-15.367 7.567,-15.304c3.45,0.1 -2.95,17.471 -2.95,17.471c-0,-0 7.446,-18.734 10.754,-16.9c3.304,1.829 -6.171,19.533 -6.171,19.533c0,0 9.942,-16.1 12.492,-14.042c2.55,2.055 -11.075,22.334 -11.075,22.334c-0,-0 11.837,-3.55 12.712,-1.188c1.417,3.817 -21.179,11.821 -23.15,12.513l-12.554,37.433l-23.958,-0.625Z" style="fill:#ff735e;fill-rule:nonzero;"/><path d="M539.764,147.151c-0,19.045 -14.909,34.487 -33.3,34.487c-18.388,0 -33.296,-15.442 -33.296,-34.487c-0,-19.046 14.908,-34.488 33.296,-34.488c18.391,0 33.3,15.442 33.3,34.488" style="fill:#5b4565;fill-rule:nonzero;"/><path d="M532.034,185.206c0,10.508 -8.52,19.029 -19.029,19.029c-10.508,0 -19.029,-8.521 -19.029,-19.029c0,-10.508 8.521,-19.029 19.029,-19.029c10.509,-0 19.029,8.521 19.029,19.029" style="fill:#5b4565;fill-rule:nonzero;"/><path d="M503.889,196.432c-5.196,-1.966 -11.438,-0.825 -15.6,2.859c-4.158,3.675 -6.058,9.733 -4.738,15.129c2.613,-2.634 6.921,-1.15 10.338,0.304c3.412,1.454 5.45,5.858 3.812,9.187c-1.37,2.784 -4.8,4.121 -7.875,3.73c-3.075,-0.396 -5.8,-2.225 -8.008,-4.396c-3.983,3.75 -3.396,10.816 0.421,14.741c3.817,3.925 9.9,4.971 15.254,3.838c5.354,-1.129 10.121,-4.138 14.521,-7.392c4.4,-3.254 8.608,-6.833 13.45,-9.387c5.521,-2.917 12.621,-5.417 13.85,-11.538c0.946,-4.696 -2.304,-9.225 -5.975,-12.3c-4.279,-3.591 -9.4,-6.171 -14.825,-7.483" style="fill:#5b4565;fill-rule:nonzero;"/><path d="M572.468,222.667c0,11.821 -9.583,21.409 -21.408,21.409c-11.821,-0 -21.404,-9.588 -21.404,-21.409c-0,-11.821 9.583,-21.408 21.404,-21.408c11.825,-0 21.408,9.587 21.408,21.408" style="fill:#5b4565;fill-rule:nonzero;"/></g></svg>