<?xml version="1.0" encoding="UTF-8" standalone="no"?><!DOCTYPE svg PUBLIC "-//W3C//DTD SVG 1.1//EN" "http://www.w3.org/Graphics/SVG/1.1/DTD/svg11.dtd"><svg width="100%" height="100%" viewBox="0 0 905 684" version="1.1" xmlns="http://www.w3.org/2000/svg" xmlns:xlink="http://www.w3.org/1999/xlink" xml:space="preserve" xmlns:serif="http://www.serif.com/" style="fill-rule:evenodd;clip-rule:evenodd;stroke-linecap:round;stroke-linejoin:round;stroke-miterlimit:10;"><g><path d="M81.105,487.502l-37.943,73.013c-2.233,4.297 -7.522,5.967 -11.815,3.734c-4.075,-2.118 -5.776,-7.024 -4.026,-11.187l32.076,-75.778c2.585,-6.105 9.628,-8.958 15.733,-6.373c6.109,2.585 8.962,9.628 6.377,15.733c-0.119,0.287 -0.261,0.586 -0.402,0.858" style="fill:#ffa637;fill-rule:nonzero;"/><path d="M159.879,463.43l-37.946,73.013c-2.229,4.298 -7.518,5.967 -11.812,3.738c-4.075,-2.121 -5.775,-7.028 -4.025,-11.187l32.076,-75.778c2.585,-6.109 9.628,-8.962 15.733,-6.377c6.109,2.585 8.962,9.632 6.377,15.733c-0.119,0.288 -0.265,0.59 -0.403,0.858" style="fill:#ffa637;fill-rule:nonzero;"/><path d="M805.383,475.096l32.076,75.778c1.888,4.454 -0.196,9.594 -4.65,11.482c-4.232,1.792 -9.096,-0.031 -11.187,-4.029l-37.947,-73.013c-3.056,-5.883 -0.766,-13.133 5.117,-16.193c5.883,-3.052 13.133,-0.766 16.189,5.117c0.142,0.279 0.284,0.578 0.402,0.858" style="fill:#ffa637;fill-rule:nonzero;"/><path d="M726.611,451.028l32.075,75.778c1.888,4.454 -0.195,9.594 -4.649,11.478c-4.232,1.793 -9.096,-0.026 -11.188,-4.029l-37.946,-73.013c-3.056,-5.883 -0.766,-13.133 5.117,-16.189c5.882,-3.056 13.132,-0.766 16.189,5.117c0.141,0.276 0.283,0.578 0.402,0.858" style="fill:#ffa637;fill-rule:nonzero;"/><path d="M866.739,486.769l-829.311,-0c-21.662,-0 -39.387,-17.725 -39.387,-39.387c0,-21.662 17.725,-39.386 39.387,-39.386l829.311,-0c21.661,-0 39.386,17.724 39.386,39.386c0,21.662 -17.725,39.387 -39.386,39.387" style="fill:#907fe5;fill-rule:nonzero;"/><path d="M809.623,414.476c-0.042,-0.536 -41.723,-0 -43.994,-0l-621.918,-0c-33.079,-0 -55.978,6.974 -65.813,-30.965c-21.761,-83.982 -0.819,-223.287 110.363,-222.781c35.407,0.161 70.676,11.574 99.47,32.171c27.59,19.743 48.643,47.054 72.105,71.554c23.462,24.507 51.267,47.253 84.622,53.454c22.24,4.132 45.227,0.54 67.092,-5.263c26.683,-7.081 52.488,-17.445 76.655,-30.788c17.085,-9.437 33.573,-20.452 52.232,-26.17c42.493,-13.021 90.55,4.745 120.902,37.215c30.349,32.463 44.783,77.268 48.284,121.573" style="fill:#ab95fc;fill-rule:nonzero;"/><path d="M157.778,388.302c-0,38.675 -31.352,70.018 -70.022,70.018c-38.671,0 -70.019,-31.343 -70.019,-70.018c0,-38.674 31.348,-70.022 70.019,-70.022c38.67,0 70.022,31.348 70.022,70.022" style="fill:#c0b3ff;fill-rule:nonzero;"/><path d="M180.914,245.107l-77.157,98.528c-4.833,6.166 -3.826,15.071 2.263,20.004l93.166,75.472c6.144,4.979 15.152,4.052 20.153,-2.068l79.528,-97.337c5.048,-6.178 4.091,-15.285 -2.129,-20.279l-95.537,-76.664c-6.239,-5.001 -15.358,-3.952 -20.287,2.344" style="fill:#764593;fill-rule:nonzero;"/><path d="M185.337,304.991c14.929,19.329 22.562,44.159 21.064,68.54" style="fill:none;fill-rule:nonzero;stroke:#894fb2;stroke-width:1.14px;"/><path d="M235.982,323.302c-8.801,0.433 -17.457,3.486 -24.58,8.671" style="fill:none;fill-rule:nonzero;stroke:#894fb2;stroke-width:1.14px;"/><path d="M422.543,197.75l31.363,-0.912l-3.278,4.014l4.738,0.36l-36.833,37.931l-25.893,0l29.903,-41.393Z" style="fill:#fee3d0;fill-rule:nonzero;"/><path d="M412.333,201.58l35.74,-12.038l-27.717,47.051l-27.716,2.55l19.693,-37.563Z" style="fill:#fee3d0;fill-rule:nonzero;"/><path d="M382.429,212.157l30.267,-40.846l9.847,26.438l-35.737,40.118l-4.377,-25.71Z" style="fill:#fee3d0;fill-rule:nonzero;"/><path d="M363.829,214.708l37.743,-44.676l20.973,27.717l-35.741,40.118l-22.975,-23.159Z" style="fill:#fee3d0;fill-rule:nonzero;"/><path d="M425.461,197.933l29.723,7.293l-37.563,40.845l-28.629,-3.646l36.469,-44.492Z" style="fill:#71a3bc;fill-rule:nonzero;"/><path d="M425.461,197.933l-36.469,44.492l-32.822,-26.989l35.741,-43.76l33.55,26.257Z" style="fill:#8abddc;fill-rule:nonzero;"/><path d="M329.732,193.378l49.233,97.371l-29.616,-2.283l50.616,-51.5c2.447,-2.493 6.445,-2.524 8.935,-0.081c2.01,1.977 2.413,4.968 1.214,7.354l-32.535,64.468c-3.964,7.859 -13.55,11.015 -21.413,7.051c-3.16,-1.597 -5.561,-4.098 -7.043,-7.035l-1.161,-2.298l-49.233,-97.372c-4.328,-8.563 -0.896,-19.011 7.664,-23.339c8.563,-4.328 19.011,-0.896 23.339,7.664" style="fill:#ff6d5c;fill-rule:nonzero;"/><path d="M316.054,183.347c-16.966,-8.296 -39.735,-7.254 -53.84,-6.105c-13.099,1.069 -27.254,3.206 -36.411,12.635c-11.36,11.696 -10.896,30.942 -4.324,45.863c6.568,14.921 16.284,28.46 27.441,40.355c19.724,21.034 7.468,44.73 22.187,61.861c18.743,21.815 61.994,14.626 66.751,-15.844c1.758,-11.249 -2.677,-22.394 -5.458,-33.435c-4.802,-19.066 -1.693,-39.954 0.739,-59.762c1.977,-16.082 1.188,-36.641 -17.085,-45.568" style="fill:#ffc23d;fill-rule:nonzero;"/><path d="M826.152,377.486c-9.85,-0.873 -13.374,11.861 -20.256,18.958c-7.2,7.43 -18.878,7.752 -29.184,6.844c-47.054,-4.129 -91.293,-23.202 -136.823,-35.779c-50.673,-14.002 -102.79,-21.677 -154.636,-29.846c-44.787,-7.063 -91.055,-18.763 -128.619,15.036c-3.681,3.313 -7.204,7.047 -8.901,11.696c-4.91,13.428 7.296,27.223 20.203,33.366c48.172,22.918 106.659,-9.705 158.06,4.562c19.662,5.457 36.935,17.495 56.41,23.592c23.669,7.411 49.1,5.649 73.829,3.814c57.039,-4.235 114.077,-8.467 171.116,-12.707c-0.513,-13.198 -0.685,-26.338 -1.199,-39.536" style="fill:#ff6d5c;fill-rule:nonzero;"/><path d="M725.023,393.542c-28.548,-7.709 -56.587,-18.146 -85.135,-26.035c-50.669,-13.999 -102.791,-21.674 -154.636,-29.847c-44.787,-7.062 -91.052,-18.759 -128.619,15.04c-3.677,3.309 -7.2,7.047 -8.901,11.697c-4.91,13.427 7.296,27.223 20.203,33.366c48.172,22.918 106.659,-9.709 158.06,4.561c19.662,5.458 36.939,17.491 56.414,23.589c23.665,7.414 49.095,5.652 73.829,3.814c24.09,-1.788 48.184,-3.577 72.274,-5.366c-1.069,-10.279 -2.267,-20.551 -3.489,-30.819" style="fill:#5b4565;fill-rule:nonzero;"/><path d="M584.224,320.572c-29.824,-20.199 -61.712,-37.123 -93.557,-53.956c-31.447,7.476 -62.983,14.795 -94.426,22.275c-16.94,4.025 -33.991,8.131 -50.283,14.152l-5.423,2.11c-4.424,1.777 -8.797,3.673 -13.068,5.814c0.077,-2.137 -0.295,0.329 -0.95,-1.44l-64.924,-0c-3.454,12.018 -10.379,19.222 -15.875,30.673c-7.736,16.116 -12.937,34.002 -11.007,51.777c1.926,17.767 11.999,35.315 28.23,42.799c18.315,8.448 39.797,2.91 58.847,-3.711c57.965,-20.157 112.744,-49.46 161.686,-86.487c5.986,9.513 14.439,18.713 22.968,26.035c23.229,19.943 56.353,21.563 86.636,26.059c18.801,2.792 37.388,7.051 55.534,12.727c17.993,5.634 36.139,13.041 49.237,26.606c6.078,6.285 16.197,10.44 24.944,10.272c14.358,-0.28 28.697,-1.413 42.922,-3.393c-66.1,-26.951 -122.392,-82.278 -181.491,-122.312" style="fill:#ff6d5c;fill-rule:nonzero;"/><path d="M330.458,306.027c-0.598,0.038 -1.191,0.061 -1.785,0.073c-12.233,0.218 -24.465,0.448 -36.694,0.67c-10.31,0.188 -20.617,0.379 -31.045,0.57c-3.627,11.237 -10.054,22.103 -15.217,32.861c-7.736,16.116 -12.937,34.002 -11.007,51.773c1.927,17.77 11.999,35.319 28.234,42.802c18.311,8.449 39.793,2.911 58.843,-3.715c57.969,-20.152 112.744,-49.459 161.69,-86.486c5.987,9.517 14.439,18.716 22.968,26.039c17.07,14.657 39.486,19.41 62.194,22.689c16.12,-16.611 32.772,-32.627 50.512,-47.438c-11.596,-8.801 -23.205,-17.353 -34.928,-25.292c-29.82,-20.203 -61.711,-37.127 -93.557,-53.956c-31.443,7.476 -62.983,14.795 -94.426,22.271c-11.329,2.696 -22.535,5.887 -33.684,9.238c-10.498,3.167 -21.053,7.246 -32.098,7.901" style="fill:#5b4565;fill-rule:nonzero;"/><path d="M249.504,206.016l77.315,76.582l-24.098,-0.333l82.553,-62.113c2.769,-2.088 6.706,-1.528 8.794,1.244c1.807,2.402 1.627,5.68 -0.257,7.867l-67.337,78.352c-5.626,6.542 -15.488,7.288 -22.03,1.666c-0.272,-0.237 -0.532,-0.475 -0.781,-0.724l-1.291,-1.279l-77.314,-76.583c-6.817,-6.748 -6.867,-17.747 -0.119,-24.564c6.753,-6.814 17.748,-6.867 24.565,-0.115" style="fill:#ff6d5c;fill-rule:nonzero;"/><path d="M362.353,269.572l27.947,-35.132c0,-0 22.796,-20.494 21.302,-22.65c-1.49,-2.152 -10.444,5.017 -10.444,5.017c-0,0 11.076,-10.08 10.241,-11.911c-1.325,-2.884 -13.738,8.778 -13.738,8.778c0,0 13.19,-13.037 10.452,-15.181c-2.738,-2.138 -14.331,12.248 -14.331,12.248c-0,-0 10.065,-14.206 7.41,-15.626c-2.658,-1.421 -14.936,17.403 -14.936,17.403c-0,-0 -1.249,-11.302 -3.566,-11.195c-3.742,0.172 -2.401,22.186 -2.279,24.101l-27.192,24.079l9.134,20.069Z" style="fill:#ff6d5c;fill-rule:nonzero;"/><path d="M371.122,270.14l23.615,-26.801c0,-0 10.234,-25.197 12.482,-24.604c2.244,0.598 -1.038,10.23 -1.038,10.23c-0,0 5.074,-12.282 6.852,-12.133c2.803,0.237 -3.187,14.109 -3.187,14.109c0,0 6.905,-14.94 9.517,-13.297c2.612,1.639 -5.898,15.649 -5.898,15.649c0,-0 8.821,-12.685 10.804,-10.892c1.988,1.788 -10.019,17.709 -10.019,17.709c0,0 9.805,-2.367 10.414,-0.398c0.984,3.171 -17.79,8.686 -19.425,9.161l-15.243,30.57l-18.874,-9.303Z" style="fill:#ff6d5c;fill-rule:nonzero;"/><path d="M321.367,127.409c-0.456,1.237 -0.869,2.482 -1.279,3.734c-1.582,4.665 -2.991,9.38 -4.466,14.075c-0.096,0.318 -0.21,0.632 -0.344,0.942c-1.176,2.762 -3.512,4.945 -6.584,6.408c-0.712,0.356 -1.498,0.643 -2.298,0.911c-5.101,1.693 -11.67,1.689 -18.257,-0.379l-3.922,-1.244c-5.948,-1.866 -11.241,-5.336 -14.374,-10.563c-0.34,-0.537 -0.628,-1.077 -0.907,-1.663c-0.276,-0.601 -0.536,-1.175 -0.739,-1.777c-0.399,-1.099 -0.671,-2.179 -0.828,-3.247c-0.145,-0.736 -0.218,-1.479 -0.249,-2.222c-0.023,-0.532 -0.026,-1.057 -0.011,-1.57c0.088,-2.976 0.774,-5.902 1.7,-8.828c0.008,-0.103 0.031,-0.184 0.081,-0.279l0.256,-0.862c0.717,-2.199 1.521,-4.397 2.218,-6.603c0.291,-0.919 0.578,-1.808 0.823,-2.715c1.62,-5.806 3.922,-12.39 9.816,-15.546c0.586,-0.302 1.188,-0.582 1.816,-0.812c5.622,-2.148 12.466,-1.325 18.104,0.444l3.921,1.241c0.456,0.138 0.927,0.299 1.395,0.475c0.471,0.161 0.938,0.345 1.397,0.544c0.464,0.184 0.946,0.391 1.402,0.609c0.931,0.429 1.854,0.896 2.746,1.398c4.926,2.8 9.207,6.886 10.881,12.076c0.777,2.34 0.72,4.756 0.283,7.15c-0.528,2.865 -1.631,5.691 -2.581,8.303" style="fill:#ff6d5c;fill-rule:nonzero;"/><path d="M293.623,136.513c-0.486,3.485 2.152,7.085 6.319,8.315c4.175,1.229 8.342,-0.364 9.824,-3.558l-16.143,-4.757Z" style="fill:#fff;fill-rule:nonzero;"/><path d="M295.403,150.617c-6.733,10.283 -8.621,23.596 -5.009,35.342c0.532,1.731 1.179,3.57 0.651,5.301l-36.078,-10.632c5.423,-4.01 10.969,-9.211 13.872,-15.3c2.137,-4.474 3.052,-9.414 3.949,-14.294c0.861,-4.691 1.723,-9.387 2.585,-14.078c3.313,3.462 7.813,7.579 12.297,9.272c3.118,1.168 4.987,2.508 7.733,4.389" style="fill:#ff6d5c;fill-rule:nonzero;"/><path d="M255.507,180.28c5.335,10.333 12.807,19.559 21.811,26.924c3.807,3.118 8.093,5.986 12.968,6.622c4.88,0.636 10.425,-1.586 12.237,-6.159c2.018,-5.089 -1.061,-10.647 -4.022,-15.25c-4.071,-6.316 -8.138,-12.639 -12.205,-18.958c-7.63,5.664 -21.325,7.675 -30.789,6.821" style="fill:#ff6d5c;fill-rule:nonzero;"/><path d="M392.089,404.538c30.907,-15.139 69.532,-33.458 91.006,-61.339c1.03,-1.337 -1.248,-2.647 -2.267,-1.325c-20.731,26.916 -60.064,45.702 -90.064,60.397c-1.517,0.747 -0.191,3.006 1.325,2.267" style="fill:#8e5ba8;fill-rule:nonzero;"/><path d="M477.533,335.342c18.804,32.711 49.861,54.959 86.908,62.155c1.65,0.322 2.359,-2.206 0.697,-2.531c-36.404,-7.074 -66.847,-28.782 -85.338,-60.949c-0.843,-1.463 -3.11,-0.142 -2.267,1.325" style="fill:#8e5ba8;fill-rule:nonzero;"/><path d="M273.959,339.09c38.705,-22.398 82.193,-36.09 124.816,-48.935c1.617,-0.486 0.927,-3.018 -0.697,-2.532c-42.833,12.911 -86.532,26.683 -125.444,49.199c-1.463,0.847 -0.142,3.118 1.325,2.268" style="fill:#8e5ba8;fill-rule:nonzero;"/><path d="M252.829,364.859c-0.069,11.972 7.422,20.996 18.862,24.665c18.434,5.909 36.664,-6.913 51.535,-15.91c50.038,-30.264 103.496,-53.986 159.359,-71.24c1.608,-0.498 0.919,-3.029 -0.701,-2.535c-36.281,11.21 -71.65,24.998 -105.732,41.765c-17.487,8.602 -34.599,17.935 -51.313,27.958c-7.12,4.267 -14.075,9.008 -21.555,12.639c-16.204,7.878 -47.985,10.153 -47.828,-17.342c0.008,-1.689 -2.619,-1.689 -2.627,0" style="fill:#8e5ba8;fill-rule:nonzero;"/><path d="M490.778,308.02c24.699,23.443 49.398,46.89 74.101,70.333c1.226,1.164 3.087,-0.69 1.858,-1.854c-24.703,-23.447 -49.402,-46.89 -74.105,-70.332c-1.222,-1.165 -3.083,0.685 -1.854,1.853" style="fill:#8e5ba8;fill-rule:nonzero;"/><path d="M289.484,114.835c-1.673,1.877 -3.37,3.788 -4.515,6.032c-1.149,2.244 -1.704,4.898 -0.973,7.307c0.463,1.517 1.39,2.838 2.152,4.225c2.697,4.914 3.195,11.313 0.131,16.013c-22.842,-7.001 -45.538,-13.505 -67.364,-23.213c1.915,-4.098 4.396,-7.342 8.628,-8.943c4.236,-1.597 8.851,-1.923 13.374,-1.739c3.076,0.123 6.27,0.452 9.131,-0.678c3.573,-1.413 5.936,-4.841 7.575,-8.318c1.636,-3.474 2.8,-7.22 5.048,-10.337c3.849,-5.343 10.559,-8.173 17.147,-8.357c6.583,-0.184 13.048,1.999 18.87,5.094c2.776,-1.149 5.538,-2.072 8.544,-2.022c1.812,0.034 3.638,0.294 5.312,0.995c2.371,1 4.293,2.808 6.155,4.585c3.726,3.542 7.698,7.61 7.981,12.738c3.248,-0.318 6.883,0.172 9.901,1.402c1.401,0.566 2.769,1.321 3.753,2.466c1.03,1.199 1.566,2.731 2.053,4.236c2.351,7.284 4.021,15.224 1.696,22.52l-54.599,-24.006Z" style="fill:#5b4565;fill-rule:nonzero;"/><path d="M308.682,107.669c1.161,-0.755 0.322,-0.104 -0.394,0.08c-0.889,0.222 -1.605,0.173 -2.497,0.019c1.21,0.211 0.528,0.303 -0.184,-0.168c1.662,1.107 -0.391,-0.705 0.414,0.222c0.406,0.467 0.911,0.877 1.336,1.333c0.161,0.172 1.402,1.693 0.651,0.666c-0.375,-0.513 -0.39,-0.509 -0.042,0.008c0.31,0.555 0.333,0.525 0.073,-0.088c0.13,-0.927 -0.647,-1.942 -0.287,-2.968c-1.896,5.404 2.156,12.206 7.644,13.454c6.117,1.394 11.425,-1.85 13.459,-7.641c2.73,-7.782 -2.233,-15.959 -8.07,-20.85c-6.446,-5.4 -15.592,-7.893 -23.148,-2.964c-4.787,3.125 -7.235,9.839 -3.926,14.975c3.083,4.78 9.843,7.265 14.971,3.922" style="fill:#5b4565;fill-rule:nonzero;"/><path d="M315.598,116.525c3.566,-4.071 7.851,-7.759 13.041,-9.295c5.189,-1.532 11.401,-0.486 14.906,3.639c0.946,1.118 1.67,2.416 2.267,3.757c3.256,7.315 2.7,16.204 -1.444,23.052c-8.088,-5.749 -16.652,-12.313 -24.741,-18.062c-1.773,-1.26 -2.911,-1.225 -4.029,-3.091" style="fill:#5b4565;fill-rule:nonzero;"/><path d="M299.25,93.411c-6.132,-9.574 -18.905,-13.152 -30.145,-11.432c-3.053,0.463 -6.163,1.306 -8.56,3.259c-6.116,4.983 -5.799,15.454 -12.432,19.728c-7.039,4.535 -16.438,-1.072 -24.649,0.571c-5.799,1.16 -10.555,6.338 -11.214,12.213" style="fill:none;fill-rule:nonzero;stroke:#5b4565;stroke-width:0.86px;stroke-linecap:butt;stroke-linejoin:miter;"/></g></svg>