<?xml version="1.0" encoding="UTF-8" standalone="no"?>
<!-- Created with Inkscape (http://www.inkscape.org/) -->

<svg
   width="62.667274mm"
   height="73.291527mm"
   viewBox="0 0 62.667274 73.291527"
   version="1.1"
   id="svg1"
   xml:space="preserve"
   xmlns:inkscape="http://www.inkscape.org/namespaces/inkscape"
   xmlns:sodipodi="http://sodipodi.sourceforge.net/DTD/sodipodi-0.dtd"
   xmlns="http://www.w3.org/2000/svg"
   xmlns:svg="http://www.w3.org/2000/svg"><sodipodi:namedview
     id="namedview1"
     pagecolor="#ffffff"
     bordercolor="#000000"
     borderopacity="0.25"
     inkscape:showpageshadow="2"
     inkscape:pageopacity="0.0"
     inkscape:pagecheckerboard="0"
     inkscape:deskcolor="#d1d1d1"
     inkscape:document-units="mm" /><defs
     id="defs1" /><g
     inkscape:label="Livello 1"
     inkscape:groupmode="layer"
     id="layer1"
     transform="translate(-68.742517,-102.72041)"><g
       id="g19"
       transform="translate(-8.4746072,17.601108)"><path
         id="rect1"
         style="fill:#cdecf4;fill-opacity:1;stroke:#64635e;stroke-width:1.08845;stroke-linejoin:round;stroke-dasharray:none;stroke-opacity:1;paint-order:markers stroke fill"
         d="m 129.95334,85.663489 v 13.291596 h -6.95068 l 0.0516,-12.884457 c -6.2513,1.510137 -7.53741,4.132568 -7.79131,9.022393 -0.24296,5.074389 1.10734,7.076169 7.52467,8.793829 v 12.22659 l 7.17111,0.0272 -0.35636,-12.13829 c 6.1764,-1.46838 7.41335,-3.33445 7.7939,-8.153737 0.40194,-5.368499 -0.53584,-8.616526 -7.44295,-10.185114 z"
         sodipodi:nodetypes="cccccccccccc" /><path
         id="rect2"
         style="fill:#c5a2a2;fill-opacity:1;stroke:#64635e;stroke-width:0.680736;stroke-linejoin:round;stroke-dasharray:none;stroke-opacity:1;paint-order:markers stroke fill"
         d="m 104.69442,109.78954 -0.0535,3.88501 a 5.0343956,4.7975083 0 0 0 -1.33867,0.44232 l -2.72542,-2.62533 -1.659413,1.7405 2.526013,2.43326 a 5.0343956,4.7975083 0 0 0 -0.56547,1.06855 l -3.902966,-0.2378 -0.145206,2.40612 3.811032,0.23221 a 5.0343956,4.7975083 0 0 0 0.39363,1.23886 l -2.387836,3.01207 1.875456,1.5023 2.10446,-2.65433 a 5.0343956,4.7975083 0 0 0 1.80462,0.79281 v 3.116 l 2.39839,-1.9e-4 -1.9e-4,-3.11972 a 5.0343956,4.7975083 0 0 0 1.8307,-0.85007 l 2.15274,2.7155 1.87565,-1.5023 -2.47516,-3.12215 a 5.0343956,4.7975083 0 0 0 0.35054,-1.12078 l 3.94144,-0.24021 -0.14521,-2.40612 -4.02653,0.24542 a 5.0343956,4.7975083 0 0 0 -0.52366,-0.99752 l 2.60758,-2.51191 -1.65922,-1.7405 -2.76352,2.66197 a 5.0343956,4.7975083 0 0 0 -0.9567,-0.37837 l 0.0545,-3.95213 z m 0.72288,5.51097 0.0303,8.4e-4 a 2.9259722,2.8096383 0 0 1 2.81495,2.90514 2.9259722,2.8096383 0 0 1 -3.01824,2.71068 2.9259722,2.8096383 0 0 1 -2.83067,-2.89122 2.9259722,2.8096383 0 0 1 3.00362,-2.72554 z" /><path
         id="path9"
         style="fill:#99af6d;fill-opacity:1;stroke:#64635e;stroke-width:0.850199;stroke-linejoin:round;stroke-dasharray:none;stroke-opacity:1;paint-order:markers stroke fill"
         d="m 117.7705,125.44118 -1.14117,4.73071 a 5.9934467,6.2858973 89.808085 0 0 -1.75619,0.20379 l -2.59896,-3.89072 -2.50714,1.70843 2.4088,3.60607 a 5.9934467,6.2858973 89.808085 0 0 -0.98601,1.16275 l -4.69725,-1.27109 -0.84359,2.90173 4.5866,1.24117 a 5.9934467,6.2858973 89.808085 0 0 0.13727,1.61172 l -3.74827,3.07817 1.8727,2.30578 3.30337,-2.71253 a 5.9934467,6.2858973 89.808085 0 0 1.98275,1.42157 l -0.86298,3.80509 2.92699,0.60242 0.86378,-3.80967 a 5.9934467,6.2858973 89.808085 0 0 2.46958,-0.57807 l 1.87509,3.85694 2.70506,-1.36324 -2.15593,-4.4345 a 5.9934467,6.2858973 89.808085 0 0 0.73817,-1.28055 l 4.8766,0.69701 0.48916,-2.9747 -4.98186,-0.71204 a 5.9934467,6.2858973 89.808085 0 0 -0.36281,-1.34968 l 3.87794,-2.4122 -1.54286,-2.5423 -4.10979,2.55624 a 5.9934467,6.2858973 89.808085 0 0 -1.06273,-0.70244 l 1.16095,-4.81242 z m -0.64408,6.91131 0.0369,0.009 a 3.5085831,3.6548514 87.565221 0 1 2.63071,4.25491 3.5085831,3.6548514 87.565221 0 1 -4.43412,2.55172 3.5085831,3.6548514 87.565221 0 1 -2.65377,-4.24185 3.5085831,3.6548514 87.565221 0 1 4.42041,-2.57355 z" /><path
         id="rect10"
         style="fill:#c9cbd6;fill-opacity:1;stroke:#64635e;stroke-width:0.431437;stroke-linejoin:round;stroke-dasharray:none;stroke-opacity:1;paint-order:markers stroke fill"
         d="m 95.659021,125.13071 v 3.05907 a 3.5353748,3.0041525 0 0 0 -0.632427,0.25333 l -2.71657,-1.78255 -1.50089,1.80297 2.66085,1.7459 a 3.5353748,3.0041525 0 0 0 -0.132741,0.70619 3.5353748,3.0041525 0 0 0 0.02054,0.41849 l -2.531532,1.90065 1.630635,1.71177 2.17074,-1.62969 a 3.5353748,3.0041525 0 0 0 1.334284,0.58315 v 2.70921 h 2.525397 v -2.94136 a 3.5353748,3.0041525 0 0 0 0.703288,-0.4039 l 2.599705,1.95165 1.63062,-1.7119 -3.0315,-2.27588 a 3.5353748,3.0041525 0 0 0 0.0148,-0.11899 3.5353748,3.0041525 0 0 0 -0.0772,-0.73652 l 2.90905,-1.90877 -1.50104,-1.80297 -2.854749,1.87313 a 3.5353748,3.0041525 0 0 0 -0.696148,-0.31841 v -3.08457 z m 1.315702,4.21534 0.02045,5.2e-4 a 1.9697089,1.5693333 0 0 1 1.894971,1.62272 1.9697089,1.5693333 0 0 1 -2.031864,1.514 1.9697089,1.5693333 0 0 1 -1.905542,-1.61485 1.9697089,1.5693333 0 0 1 2.022004,-1.52238 z" /><path
         style="fill:none;fill-opacity:1;stroke:#ffffff;stroke-width:0.756;stroke-linejoin:round;stroke-dasharray:none;stroke-opacity:1;paint-order:markers stroke fill"
         d="m 118.15826,106.605 h -12.16438 l -3.34103,1.11367 -4.640316,1.85612 -5.754,3.89787 -3.15542,2.41297 -3.52664,5.38277 0.37123,6.12522 -8.35258,6.86767 0.55684,3.34103 3.89787,0.18562 v 3.89786 l 0.55684,1.11368 5.19715,0.18561 -4.966256,-0.421 0.325946,4.50448 -1.11368,1.67052 -0.18561,2.78419 4.26909,3.34103 h 11.69361 l -0.18562,3.52664"
         id="path15"
         sodipodi:nodetypes="ccccccccccccccccccccc" /><path
         style="color:#000000;fill:#ffffff;stroke:#ffffff;stroke-linejoin:round;stroke-opacity:1;-inkscape-stroke:none;paint-order:markers stroke fill"
         d="m 133.1259,111.42007 0.27081,-0.38626 5.22994,10.90564 -0.1836,10.41211 -4.1914,7.28906 -5.1543,4.78711 c -0.0126,0.0116 -0.0243,0.024 -0.0352,0.0371 l -3.52734,4.26953 c -0.0465,0.0563 -0.0756,0.12478 -0.084,0.19727 l -0.92774,7.98047 c -0.0129,0.11479 0.0274,0.22918 0.10938,0.31055 l 0.37109,0.37109 0.5332,-0.5332 -0.24023,-0.24219 0.89258,-7.68945 2.78755,-4.16407 5.83159,-4.80859 c 0.0277,-0.0256 0.0514,-0.0553 0.0703,-0.0879 l 4.26953,-7.42578 c 0.032,-0.0553 0.0495,-0.11777 0.0508,-0.18164 l 0.18555,-10.58008 c 3e-4,-0.0474 -4.8972,-10.19884 -4.9146,-10.24301 z"
         id="path16"
         sodipodi:nodetypes="ccccccccccccccccccccccc" /></g></g></svg>
